<svg id="f5012172-b9a8-4d42-a752-bbc4e1a5f10b" xmlns="http://www.w3.org/2000/svg" viewBox="0 0 1050 802.13"><defs><style>.cls-1,.cls-12,.cls-18,.cls-19,.cls-2,.cls-20,.cls-21,.cls-22{fill:none;}.cls-1{stroke:#464353;}.cls-1,.cls-19,.cls-2,.cls-20,.cls-23{stroke-miterlimit:10;}.cls-1,.cls-13,.cls-14,.cls-18,.cls-21,.cls-22{stroke-width:8px;}.cls-2{stroke:#535461;stroke-width:2px;}.cls-3,.cls-5,.cls-8{fill:#6c63ff;}.cls-4{opacity:0.25;}.cls-10,.cls-4,.cls-5,.cls-8{isolation:isolate;}.cls-10,.cls-5{opacity:0.1;}.cls-6{fill:#464353;}.cls-7{fill:#fff;}.cls-8{opacity:0.5;}.cls-9{fill:#35323e;}.cls-11{fill:#444053;}.cls-13,.cls-17{fill:#08c7cc;}.cls-13,.cls-21{stroke:#08c7cc;}.cls-13,.cls-14,.cls-18,.cls-20,.cls-21,.cls-22{stroke-linecap:round;}.cls-13,.cls-14,.cls-18,.cls-21,.cls-22{stroke-linejoin:round;}.cls-14,.cls-15{fill:#731dd8;}.cls-14,.cls-22{stroke:#731dd8;}.cls-16,.cls-23{fill:#eafeff;}.cls-18{stroke:#fff;}.cls-19,.cls-20,.cls-23{stroke:#eafeff;}.cls-19,.cls-20{stroke-width:3px;}</style></defs><title>ai-community</title><path class="cls-1" d="M912.6,498.5c0,1.8,20.7,3.2,46.3,3.2" transform="translate(0 -10.97)"/><path class="cls-1" d="M912.6,532.3c0,1.8,20.7,3.2,46.3,3.2" transform="translate(0 -10.97)"/><path class="cls-1" d="M912.6,525.1c0,1.8,20.7,3.2,46.3,3.2" transform="translate(0 -10.97)"/><path class="cls-1" d="M912.6,518.8c0,1.8,20.7,3.2,46.3,3.2" transform="translate(0 -10.97)"/><path class="cls-1" d="M912.6,505.3c0,1.8,20.7,3.2,46.3,3.2" transform="translate(0 -10.97)"/><path class="cls-1" d="M912.6,512.6c0,1.8,20.7,3.2,46.3,3.2" transform="translate(0 -10.97)"/><g id="b573ecc7-29c8-4b12-9921-26ee787de98d"><path class="cls-2" d="M272.3,336.9s-58-73.5-53.5-146.5c1.9-30.6-5.7-61.2-22.5-86.8a229.77,229.77,0,0,0-27.3-34" transform="translate(0 -10.97)"/><path class="cls-3" d="M171.6,23.5c4.1,10.2-2.5,47.2-2.5,47.2s-30.4-22.2-34.5-32.4a19.93,19.93,0,1,1,37-14.8Z" transform="translate(0 -10.97)"/><path class="cls-3" d="M224.9,67.8c-2.1,10.8-27.8,38.3-27.8,38.3S183.6,71,185.7,60.2a19.91,19.91,0,0,1,39.2,7Z" transform="translate(0 -10.97)"/><path class="cls-3" d="M262.4,165c-7.3,8.2-43.4,19-43.4,19s6.1-37.1,13.4-45.4a19.84,19.84,0,0,1,28.1-1.8,20.06,20.06,0,0,1,1.9,28.2Z" transform="translate(0 -10.97)"/><path class="cls-3" d="M274.2,244.9c-5.8,9.4-39.5,26.1-39.5,26.1s-.2-37.6,5.5-47a20,20,0,0,1,34,20.9Z" transform="translate(0 -10.97)"/><path class="cls-3" d="M159.1,123.7c10.2,4.2,47.3-2.2,47.3-2.2s-22-30.5-32.2-34.7a19.94,19.94,0,0,0-15.1,36.9Z" transform="translate(0 -10.97)"/><path class="cls-3" d="M174.1,217c11,.9,44.5-16.2,44.5-16.2s-30.1-22.6-41.1-23.5a20,20,0,1,0-4.1,39.7c.2-.1.4,0,.7,0Z" transform="translate(0 -10.97)"/><path class="cls-3" d="M201.1,305.7c10.6,2.8,46.5-8.5,46.5-8.5s-25.9-27.3-36.5-30.1a19.94,19.94,0,0,0-10,38.6Z" transform="translate(0 -10.97)"/><path class="cls-4" d="M171.6,23.5c4.1,10.2-2.5,47.2-2.5,47.2s-30.4-22.2-34.5-32.4a19.93,19.93,0,1,1,37-14.8Z" transform="translate(0 -10.97)"/><path class="cls-4" d="M224.9,67.8c-2.1,10.8-27.8,38.3-27.8,38.3S183.6,71,185.7,60.2a19.91,19.91,0,0,1,39.2,7Z" transform="translate(0 -10.97)"/><path class="cls-4" d="M262.4,165c-7.3,8.2-43.4,19-43.4,19s6.1-37.1,13.4-45.4a19.84,19.84,0,0,1,28.1-1.8,20.06,20.06,0,0,1,1.9,28.2Z" transform="translate(0 -10.97)"/><path class="cls-4" d="M274.2,244.9c-5.8,9.4-39.5,26.1-39.5,26.1s-.2-37.6,5.5-47a20,20,0,0,1,34,20.9Z" transform="translate(0 -10.97)"/><path class="cls-4" d="M159.1,123.7c10.2,4.2,47.3-2.2,47.3-2.2s-22-30.5-32.2-34.7a19.94,19.94,0,0,0-15.1,36.9Z" transform="translate(0 -10.97)"/><path class="cls-4" d="M174.1,217c11,.9,44.5-16.2,44.5-16.2s-30.1-22.6-41.1-23.5a20,20,0,1,0-4.1,39.7c.2-.1.4,0,.7,0Z" transform="translate(0 -10.97)"/><path class="cls-4" d="M201.1,305.7c10.6,2.8,46.5-8.5,46.5-8.5s-25.9-27.3-36.5-30.1a19.94,19.94,0,0,0-10,38.6Z" transform="translate(0 -10.97)"/><path class="cls-2" d="M271.8,333.9S189,290.3,163.5,221.7a142.4,142.4,0,0,0-55.8-70.3A236.77,236.77,0,0,0,69,131.3" transform="translate(0 -10.97)"/><path class="cls-3" d="M52.7,88.1c7.9,7.7,16.9,44.2,16.9,44.2s-36.8-8-44.7-15.6a19.95,19.95,0,0,1,27.4-29C52.4,87.9,52.6,88,52.7,88.1Z" transform="translate(0 -10.97)"/><path class="cls-3" d="M119.4,107c2.4,10.7-9.9,46.3-9.9,46.3s-26.5-26.7-29-37.4a20,20,0,0,1,38.9-8.9Z" transform="translate(0 -10.97)"/><path class="cls-3" d="M193,180.7c-3.3,10.5-31.9,35-31.9,35s-9.4-36.4-6.1-46.9a19.92,19.92,0,0,1,38,11.9Z" transform="translate(0 -10.97)"/><path class="cls-3" d="M236.2,249c-1.5,10.9-25.5,39.9-25.5,39.9s-15.5-34.3-14-45.2a19.93,19.93,0,1,1,39.5,5.3Z" transform="translate(0 -10.97)"/><path class="cls-3" d="M81.9,184.8c11-.3,42.3-21.1,42.3-21.1s-32.5-19-43.5-18.7a19.91,19.91,0,0,0,1.2,39.8Z" transform="translate(0 -10.97)"/><path class="cls-3" d="M133.4,264c10.4-3.6,34.1-32.8,34.1-32.8s-36.7-8.4-47.1-4.8a19.89,19.89,0,0,0,13,37.6Z" transform="translate(0 -10.97)"/><path class="cls-3" d="M194,334.1c10.9-1.8,39.1-26.6,39.1-26.6s-34.7-14.5-45.6-12.7a19.92,19.92,0,0,0,6.5,39.3Z" transform="translate(0 -10.97)"/></g><ellipse class="cls-5" cx="525" cy="729.13" rx="525" ry="73"/><path class="cls-6" d="M230.8,16.1H759.2A19.85,19.85,0,0,1,779,35.9V680.3a19.85,19.85,0,0,1-19.8,19.8H230.8A19.85,19.85,0,0,1,211,680.3V35.9A19.85,19.85,0,0,1,230.8,16.1Z" transform="translate(0 -10.97)"/><rect class="cls-5" x="260" y="74.13" width="470" height="546"/><circle class="cls-7" cx="495" cy="656.13" r="20"/><circle class="cls-7" cx="495" cy="45.13" r="9.5"/><path class="cls-7" d="M495,47.1a9,9,0,1,1-9,9,9,9,0,0,1,9-9h0m0-1a10,10,0,1,0,10,10A10,10,0,0,0,495,46.1Z" transform="translate(0 -10.97)"/><path class="cls-7" d="M406.7,476a.76.76,0,0,1-.5-.2l-9.1-8.4V476H395V458h2.1v8.6l9.2-8.5a.76.76,0,0,1,.5-.2.88.88,0,0,1,.9.8h0V475c-.1.6-.4,1-1,1Z" transform="translate(0 -10.97)"/><path class="cls-7" d="M406.7,458.4c.2,0,.4.1.4.3h0V475a.45.45,0,0,1-.3.4h0c-.1,0-.1,0-.2-.1l-8.3-7.6-.9-.8.9-.8,8.3-7.7c0,.1.1,0,.1,0m-10.1,0v17.1h-1.1V458.4h1.1m10.1-1a1.61,1.61,0,0,0-.9.3l-8.3,7.7v-7.5a.47.47,0,0,0-.5-.5h-2a.47.47,0,0,0-.5.5h0V476a.47.47,0,0,0,.5.5h2a.47.47,0,0,0,.5-.5h0v-7.4l8.3,7.7a1.22,1.22,0,0,0,.9.3,1.35,1.35,0,0,0,1.4-1.3h0V458.9a1.45,1.45,0,0,0-1.4-1.5Z" transform="translate(0 -10.97)"/><path class="cls-7" d="M583.3,476a1.42,1.42,0,0,1-.6-.2.86.86,0,0,1-.3-.6V458.9a.9.9,0,0,1,.9-.9h0a.76.76,0,0,1,.5.2l9.2,8.4V458h2v18h-2v-8.7l-9.2,8.5C583.7,476,583.5,476,583.3,476Z" transform="translate(0 -10.97)"/><path class="cls-7" d="M583.3,458.4c.1,0,.2,0,.2.1l8.3,7.6.9.8-.9.8-8.3,7.7c-.1.1-.1.1-.2.1a.43.43,0,0,1-.4-.4V458.8a.43.43,0,0,1,.4-.4h0m11.2,0v17.1h-1.1V458.4h1.1m-11.2-1a1.35,1.35,0,0,0-1.4,1.3h0V475a1.35,1.35,0,0,0,1.3,1.4h0a1.61,1.61,0,0,0,.9-.3l8.3-7.7v7.5a.47.47,0,0,0,.5.5h2a.47.47,0,0,0,.5-.5h0v-18a.47.47,0,0,0-.5-.5h-2a.47.47,0,0,0-.5.5h0v7.5l-8.3-7.7A1.14,1.14,0,0,0,583.3,457.4Z" transform="translate(0 -10.97)"/><path class="cls-7" d="M498.4,476.3a1.47,1.47,0,0,1-1.5-1.5V459.9a1.47,1.47,0,0,1,1.5-1.5h4.1a1.47,1.47,0,0,1,1.5,1.5v14.9a1.47,1.47,0,0,1-1.5,1.5Zm-10.9,0a1.47,1.47,0,0,1-1.5-1.5V459.9a1.47,1.47,0,0,1,1.5-1.5h4.1a1.47,1.47,0,0,1,1.5,1.5v14.9a1.47,1.47,0,0,1-1.5,1.5Z" transform="translate(0 -10.97)"/><path class="cls-7" d="M502.5,458.8a.94.94,0,0,1,1,1v14.9a.94.94,0,0,1-1,1h-4.1a.94.94,0,0,1-1-1V459.8a.94.94,0,0,1,1-1h4.1m-10.9,0a.94.94,0,0,1,1,1v14.9a.94.94,0,0,1-1,1h-4.1a.94.94,0,0,1-1-1V459.8a.94.94,0,0,1,1-1h4.1m10.9-1h-4.1a2,2,0,0,0-2,2v14.9a2,2,0,0,0,2,2h4.1a2,2,0,0,0,2-2V459.8A2,2,0,0,0,502.5,457.8Zm-10.9,0h-4.1a2,2,0,0,0-2,2v14.9a2,2,0,0,0,2,2h4.1a2,2,0,0,0,2-2V459.8A2,2,0,0,0,491.6,457.8Z" transform="translate(0 -10.97)"/><rect class="cls-8" x="375" y="422.63" width="240" height="2.7"/><path class="cls-7" d="M449.1,440.8a5.8,5.8,0,1,1,5.8-5.8h0A5.8,5.8,0,0,1,449.1,440.8Z" transform="translate(0 -10.97)"/><path class="cls-7" d="M449.1,429.6a5.3,5.3,0,1,1-5.3,5.3h0a5.34,5.34,0,0,1,5.3-5.3m0-1a6.3,6.3,0,1,0,6.3,6.3h0a6.34,6.34,0,0,0-6.3-6.3Z" transform="translate(0 -10.97)"/><rect class="cls-7" x="375.5" y="423.13" width="73.1" height="1.7"/><path class="cls-7" d="M448.1,434.6v.7H376v-.7h72.1m1-1H375v2.7h74.1Z" transform="translate(0 -10.97)"/><path class="cls-9" d="M864.8,588.4c-37.6,0-68.1,42.6-68.1,95.1s30.5,95.1,68.1,95.1,68.1-42.6,68.1-95.1S902.4,588.4,864.8,588.4Zm3.5,177.2c-33.1,0-59.9-37.3-59.9-83.3S835.2,599,868.3,599s59.9,37.3,59.9,83.3S901.4,765.6,868.3,765.6Z" transform="translate(0 -10.97)"/><path class="cls-6" d="M873,475.6l-4.7,79.9H776a32,32,0,0,0-21.7,8.2,29,29,0,0,0-9.3,18.8V702.3h11.7l-.1-8.2H873V682.3H756.5l-1-96.1a14.72,14.72,0,0,1,.4-3.6c.7-3.2,2.8-8.9,8.2-12.2a15.38,15.38,0,0,1,7.8-2H876.5l5.9-83.4h35.2v-9.5H873Z" transform="translate(0 -10.97)"/><path class="cls-10" d="M873,475.6l-4.7,79.9H776a32,32,0,0,0-21.7,8.2,29,29,0,0,0-9.3,18.8V702.3h11.7l-.1-8.2H873V682.3H756.5l-1-96.1a14.72,14.72,0,0,1,.4-3.6c.7-3.2,2.8-8.9,8.2-12.2a15.38,15.38,0,0,1,7.8-2H876.5l5.9-83.4h35.2v-9.5H873Z" transform="translate(0 -10.97)"/><rect class="cls-6" x="838.9" y="671.33" width="117.5" height="11.8"/><path class="cls-6" d="M876.5,673.4V638.8h-9.4v34.6c-3.5,2.6-5.9,8-5.9,14.2,0,8.8,4.7,15.9,10.6,15.9s10.6-7.1,10.6-15.9C882.4,681.4,880,676,876.5,673.4Z" transform="translate(0 -10.97)"/><path class="cls-6" d="M830.4,702.8a11.07,11.07,0,0,1,14.4-.5h0s14.1,9.4,1.2,49.3c0,0-9.4,5.9-4.7-12.9s2.3-30.5-2.3-30.5-10.6,12.9-10.6,12.9l-8.2-3.5A45.8,45.8,0,0,1,830.4,702.8Z" transform="translate(0 -10.97)"/><path class="cls-6" d="M742.3,702.8a11,11,0,0,1,14.4-.5h0s14.1,9.4,1.2,49.3c0,0-9.4,5.9-4.7-12.9s2.3-30.5-2.3-30.5-10.6,12.9-10.6,12.9l-8.2-3.5A47.76,47.76,0,0,1,742.3,702.8Z" transform="translate(0 -10.97)"/><ellipse class="cls-9" cx="743.2" cy="737.13" rx="26.4" ry="35.2"/><ellipse class="cls-9" cx="831.3" cy="737.13" rx="26.4" ry="35.2"/><path class="cls-11" d="M795.3,682.4c.8,18.2,21.4,11.1,24.4,8.7a13.58,13.58,0,0,0,1.2-1.2c-7.2,2.7-20,4.7-24.2-11.7A34.46,34.46,0,0,0,795.3,682.4Z" transform="translate(0 -10.97)"/><path class="cls-11" d="M716,697.6s15.7,4.6,24.4,4.1c7.6-.5,6.5-7.8,6.1-9.6-8-.2-21.7-1-28.8-3.2h0C715.7,689.8,716,697.6,716,697.6Z" transform="translate(0 -10.97)"/><path class="cls-10" d="M795.3,682.4c.8,18.2,21.4,11.1,24.4,8.7a13.58,13.58,0,0,0,1.2-1.2c-7.2,2.7-20,4.7-24.2-11.7A34.46,34.46,0,0,0,795.3,682.4Z" transform="translate(0 -10.97)"/><path class="cls-10" d="M811.6,675.9c-2.7,2.7,25.8-9,19.3-9.5S811.6,675.9,811.6,675.9Z" transform="translate(0 -10.97)"/><circle class="cls-7" cx="900.5" cy="491.63" r="3"/><path class="cls-12" d="M841.1,551a6.93,6.93,0,0,0,5.1,3.5A38.42,38.42,0,0,0,862,553s-27.3-8.7-1-29.8h-7.1l-2.3-.9C847.7,529.2,841.6,541.4,841.1,551Z" transform="translate(0 -10.97)"/><path class="cls-10" d="M677.2,754.4c8.4,5.7,21.2,3,21.2,3s19.3-9.2,25-9.2,19.5-5.7,19.5-5.7l-.5-3.8c-5.6,1.1-18.4,3.7-19.9,4.9-1.9,1.6-25.2,9.5-25.2,9.5s-15.9-2-20.3-8.5C674,747.6,672.8,751.4,677.2,754.4Z" transform="translate(0 -10.97)"/><path class="cls-6" d="M954.1,561.3v70.5H841.3v11.7H952.9V694h11.8V561.3Z" transform="translate(0 -10.97)"/><ellipse class="cls-9" cx="959.9" cy="675.43" rx="10.6" ry="15.9"/><ellipse class="cls-6" cx="962.3" cy="676.03" rx="2.3" ry="4.7"/><path class="cls-6" d="M835.4,663.6v12.9c-3.7-2.3-7.7-1.7-11.3-.1a21,21,0,0,0-11.7,13.8c-2.8,9.8-8.4,29.2-13.4,47.5-7,25.8-20,20-20,20l-89.9,6.5L651,744.6V732.9h96.3s22.3,8.2,31.7,11.7,5.9-3.5,18.3-47.8S835.4,663.6,835.4,663.6Z" transform="translate(0 -10.97)"/><polygon class="cls-10" points="779 746.53 689.2 753.03 651 733.63 745 732.43 779 746.53"/><path class="cls-9" d="M952.9,588.4c-37.6,0-68.1,42.6-68.1,95.1s30.5,95.1,68.1,95.1S1021,736,1021,683.5,990.5,588.4,952.9,588.4Zm3.5,177.2c-33.1,0-59.9-37.3-59.9-83.3S923.3,599,956.4,599s59.9,37.3,59.9,83.3S989.5,765.6,956.4,765.6Z" transform="translate(0 -10.97)"/><rect class="cls-13" x="112.21" y="327.79" width="118" height="335.69" transform="matrix(0.99, -0.13, 0.13, 0.99, -61.84, 14.93)"/><polygon class="cls-14" points="739.9 583.13 887.2 413.33 954.1 627.93 739.9 583.13"/><path class="cls-15" d="M829.93,603.48h0c2.82,4.28,1.14,9.79-3.79,12.24l-47.36,23.79c-4.93,2.45-11.27,1-14.08-3.29h0c-2.82-4.28-1.14-9.79,3.79-12.24l47.36-23.79C820.69,597.74,827,599.19,829.93,603.48Z" transform="translate(0 -10.97)"/><circle class="cls-16" cx="146.98" cy="476.7" r="5" transform="translate(-156.33 69.69) rotate(-20.31)"/><circle class="cls-16" cx="185.48" cy="471.7" r="5" transform="translate(-152.2 82.74) rotate(-20.31)"/><path class="cls-15" d="M877.68,611.28h0c2.82,4.28,1.14,9.79-3.79,12.24l-47.36,23.79c-4.93,2.45-11.27,1-14.08-3.29h0c-2.82-4.28-1.14-9.79,3.79-12.24L863.6,608C868.44,605.54,874.78,607,877.68,611.28Z" transform="translate(0 -10.97)"/><path class="cls-6" d="M1005.7,475.6H961.1l-4.7,79.9H864.1a32.23,32.23,0,0,0-21.7,8.2,29,29,0,0,0-9.3,18.8V702.3h11.8l-1.2-116.1a21.86,21.86,0,0,1,.3-3.6c.7-3.2,2.8-8.9,8.2-12.2a15.38,15.38,0,0,1,7.8-2H964.6l5.9-83.4h35.2Z" transform="translate(0 -10.97)"/><path class="cls-17" d="M171.9,640.7h0c4.77-.2,8.74,4.9,9,11.3l1.62,62.1c.15,6.5-3.6,11.9-8.3,12.2h0c-4.77.2-8.74-4.9-9-11.3l-1.62-62.1C163.45,646.4,167.2,640.9,171.9,640.7Z" transform="translate(0 -10.97)"/><path class="cls-17" d="M205.26,633.5h0c4.77-.2,8.74,4.9,9,11.3l1.62,62.1c.15,6.5-3.6,11.9-8.3,12.2h0c-4.77.2-8.74-4.9-9-11.3L197,645.7C196.82,639.2,200.56,633.7,205.26,633.5Z" transform="translate(0 -10.97)"/><polygon class="cls-18" points="385 376.33 459.4 247.53 533.8 376.33 385 376.33"/><rect class="cls-18" x="551.2" y="247.53" width="33.8" height="128.8"/><path class="cls-19" d="M801,579" transform="translate(0 -10.97)"/><path class="cls-19" d="M789.1,563.3" transform="translate(0 -10.97)"/><path class="cls-20" d="M185.42,494.34c-4.18,5.51-17.34,11.24-28.42,2.42" transform="translate(0 -10.97)"/><path class="cls-21" d="M225.23,476.22c40.93-20.05,53-65.18,51.74-70" transform="translate(0 -10.97)"/><path class="cls-22" d="M907,533.52c40.93-20.05,53-65.18,51.74-70" transform="translate(0 -10.97)"/><path class="cls-22" d="M797,430.75c-6,45.18,24.84,80.26,29.59,81.89" transform="translate(0 -10.97)"/><path class="cls-21" d="M73.95,573.54c0-41.94,33.1-70,51.74-70" transform="translate(0 -10.97)"/><circle class="cls-16" cx="845.07" cy="515.5" r="5" transform="translate(-23.15 29.06) rotate(-2.68)"/><circle class="cls-16" cx="883.28" cy="522.4" r="5" transform="matrix(1, -0.05, 0.05, 1, -23.43, 30.85)"/><path class="cls-23" d="M874.77,537.86c-5.25,12.3-24.66,15.44-27.1-4.69" transform="translate(0 -10.97)"/></svg>