<svg id="f5012172-b9a8-4d42-a752-bbc4e1a5f10b" xmlns="http://www.w3.org/2000/svg" viewBox="0 0 1050 802.14"><defs><style>.cls-1,.cls-12,.cls-18,.cls-19,.cls-2,.cls-20{fill:none;}.cls-1{stroke:#464353;}.cls-1,.cls-19,.cls-2,.cls-20{stroke-miterlimit:10;}.cls-1,.cls-13,.cls-14,.cls-18{stroke-width:8px;}.cls-2{stroke:#535461;stroke-width:2px;}.cls-3,.cls-5,.cls-8{fill:#6c63ff;}.cls-4{opacity:0.25;}.cls-10,.cls-4,.cls-5,.cls-8{isolation:isolate;}.cls-10,.cls-5{opacity:0.1;}.cls-6{fill:#464353;}.cls-7{fill:#fff;}.cls-8{opacity:0.5;}.cls-9{fill:#35323e;}.cls-11{fill:#444053;}.cls-13,.cls-16{fill:#08c7cc;}.cls-13{stroke:#08c7cc;}.cls-13,.cls-14,.cls-18,.cls-20{stroke-linecap:round;}.cls-13,.cls-14,.cls-18{stroke-linejoin:round;}.cls-14,.cls-15{fill:#731dd8;}.cls-14{stroke:#731dd8;}.cls-17{fill:#eafeff;}.cls-18{stroke:#fff;}.cls-19,.cls-20{stroke:#eafeff;stroke-width:3px;}</style></defs><title>ai-community</title><path class="cls-1" d="M912.62,498.5c0,1.78,20.69,3.21,46.25,3.21" transform="translate(0 -10.99)"/><path class="cls-1" d="M912.62,532.32c0,1.78,20.69,3.21,46.25,3.21" transform="translate(0 -10.99)"/><path class="cls-1" d="M912.62,525.05c0,1.78,20.69,3.21,46.25,3.21" transform="translate(0 -10.99)"/><path class="cls-1" d="M912.62,518.8c0,1.78,20.69,3.21,46.25,3.21" transform="translate(0 -10.99)"/><path class="cls-1" d="M912.62,505.3c0,1.78,20.69,3.21,46.25,3.21" transform="translate(0 -10.99)"/><path class="cls-1" d="M912.62,512.55c0,1.78,20.69,3.21,46.25,3.21" transform="translate(0 -10.99)"/><g id="b573ecc7-29c8-4b12-9921-26ee787de98d"><path class="cls-2" d="M272.3,336.94s-58-73.46-53.51-146.5c1.89-30.65-5.66-61.18-22.53-86.84a237.94,237.94,0,0,0-27.26-34" transform="translate(0 -10.99)"/><path class="cls-3" d="M171.57,23.5c4.1,10.21-2.49,47.25-2.49,47.25s-30.39-22.19-34.49-32.39a19.94,19.94,0,1,1,37-14.86Z" transform="translate(0 -10.99)"/><path class="cls-3" d="M224.86,67.78c-2.11,10.81-27.78,38.32-27.78,38.32S183.63,71,185.74,60.16a19.93,19.93,0,1,1,39.24,7Q224.92,67.48,224.86,67.78Z" transform="translate(0 -10.99)"/><path class="cls-3" d="M262.35,165C255.08,173.24,219,184,219,184s6.13-37.12,13.4-45.38A19.92,19.92,0,1,1,262.35,165Z" transform="translate(0 -10.99)"/><path class="cls-3" d="M274.17,244.91c-5.77,9.38-39.48,26.1-39.48,26.1s-.23-37.62,5.54-47a19.93,19.93,0,0,1,33.94,20.89Z" transform="translate(0 -10.99)"/><path class="cls-3" d="M159.05,123.67c10.19,4.17,47.27-2.16,47.27-2.16s-22-30.54-32.16-34.72a19.93,19.93,0,0,0-15.11,36.88Z" transform="translate(0 -10.99)"/><path class="cls-3" d="M174.05,217c11,.93,44.46-16.21,44.46-16.21s-30.11-22.57-41.07-23.5a19.93,19.93,0,0,0-4.05,39.65l.66.06Z" transform="translate(0 -10.99)"/><path class="cls-3" d="M201.08,305.66c10.65,2.78,46.55-8.46,46.55-8.46s-25.86-27.33-36.51-30.1a19.92,19.92,0,0,0-10,38.56Z" transform="translate(0 -10.99)"/><path class="cls-4" d="M171.57,23.5c4.1,10.21-2.49,47.25-2.49,47.25s-30.39-22.19-34.49-32.39a19.94,19.94,0,1,1,37-14.86Z" transform="translate(0 -10.99)"/><path class="cls-4" d="M224.86,67.78c-2.11,10.81-27.78,38.32-27.78,38.32S183.63,71,185.74,60.16a19.93,19.93,0,1,1,39.24,7Q224.92,67.48,224.86,67.78Z" transform="translate(0 -10.99)"/><path class="cls-4" d="M262.35,165C255.08,173.24,219,184,219,184s6.13-37.12,13.4-45.38A19.92,19.92,0,1,1,262.35,165Z" transform="translate(0 -10.99)"/><path class="cls-4" d="M274.17,244.91c-5.77,9.38-39.48,26.1-39.48,26.1s-.23-37.62,5.54-47a19.93,19.93,0,0,1,33.94,20.89Z" transform="translate(0 -10.99)"/><path class="cls-4" d="M159.05,123.67c10.19,4.17,47.27-2.16,47.27-2.16s-22-30.54-32.16-34.72a19.93,19.93,0,0,0-15.11,36.88Z" transform="translate(0 -10.99)"/><path class="cls-4" d="M174.05,217c11,.93,44.46-16.21,44.46-16.21s-30.11-22.57-41.07-23.5a19.93,19.93,0,0,0-4.05,39.65l.66.06Z" transform="translate(0 -10.99)"/><path class="cls-4" d="M201.08,305.66c10.65,2.78,46.55-8.46,46.55-8.46s-25.86-27.33-36.51-30.1a19.92,19.92,0,0,0-10,38.56Z" transform="translate(0 -10.99)"/><path class="cls-2" d="M271.8,333.88S189,290.23,163.52,221.63c-10.7-28.79-30-53.64-55.79-70.26A237.8,237.8,0,0,0,69,131.28" transform="translate(0 -10.99)"/><path class="cls-3" d="M52.7,88.14c7.88,7.68,16.87,44.21,16.87,44.21s-36.77-8-44.66-15.64a19.93,19.93,0,0,1,27.4-28.95Z" transform="translate(0 -10.99)"/><path class="cls-3" d="M119.36,107c2.45,10.73-9.87,46.28-9.87,46.28s-26.53-26.68-29-37.41A19.92,19.92,0,1,1,119.34,107Z" transform="translate(0 -10.99)"/><path class="cls-3" d="M193,180.7c-3.3,10.5-31.88,35-31.88,35s-9.44-36.42-6.14-46.92a19.93,19.93,0,0,1,38,11.95Z" transform="translate(0 -10.99)"/><path class="cls-3" d="M236.22,249c-1.48,10.91-25.51,39.85-25.51,39.85s-15.46-34.3-14-45.2a19.93,19.93,0,0,1,39.5,5.35Z" transform="translate(0 -10.99)"/><path class="cls-3" d="M81.85,184.79c11-.31,42.34-21.13,42.34-21.13s-32.47-19-43.47-18.7a19.92,19.92,0,0,0,1.13,39.83Z" transform="translate(0 -10.99)"/><path class="cls-3" d="M133.37,264c10.4-3.59,34.07-32.84,34.07-32.84s-36.66-8.43-47.07-4.84a19.93,19.93,0,0,0,13,37.68Z" transform="translate(0 -10.99)"/><path class="cls-3" d="M194,334.15c10.86-1.78,39.14-26.61,39.14-26.61s-34.72-14.5-45.58-12.72A19.93,19.93,0,0,0,194,334.15Z" transform="translate(0 -10.99)"/></g><ellipse class="cls-5" cx="525" cy="729.14" rx="525" ry="73"/><rect class="cls-6" x="211" y="5.14" width="568" height="684" rx="19.8" ry="19.8"/><rect class="cls-5" x="260" y="74.14" width="470" height="546"/><circle class="cls-7" cx="495" cy="656.14" r="20"/><circle class="cls-7" cx="495" cy="45.14" r="9.5"/><path class="cls-7" d="M495,47.12a9,9,0,1,1-9,9,9,9,0,0,1,9-9h0m0-1a10,10,0,1,0,10,10A10,10,0,0,0,495,46.12Z" transform="translate(0 -10.99)"/><path class="cls-7" d="M406.74,476a.84.84,0,0,1-.54-.2l-9.14-8.42V476H395V458h2.06v8.61l9.16-8.48a.78.78,0,0,1,.52-.18.85.85,0,0,1,.87.83s0,0,0,0V475.1a.86.86,0,0,1-.81.91Z" transform="translate(0 -10.99)"/><path class="cls-7" d="M406.74,458.44a.35.35,0,0,1,.37.33s0,0,0,0v16.34a.36.36,0,0,1-.35.37h0a.37.37,0,0,1-.21-.08l-8.3-7.63-.87-.8.88-.81,8.29-7.68a.35.35,0,0,1,.21-.07m-10.18,0v17.12h-1.07V458.44h1.07m10.18-1a1.32,1.32,0,0,0-.86.31l-8.32,7.71v-7.51a.51.51,0,0,0-.51-.51H395a.51.51,0,0,0-.51.51h0V476a.51.51,0,0,0,.51.51H397a.51.51,0,0,0,.51-.51h0v-7.44l8.32,7.66a1.33,1.33,0,0,0,.86.32,1.36,1.36,0,0,0,1.37-1.35s0,0,0,0V458.8a1.35,1.35,0,0,0-1.34-1.36h0Z" transform="translate(0 -10.99)"/><path class="cls-7" d="M583.26,476a.89.89,0,0,1-.6-.24.83.83,0,0,1-.27-.63V458.8a.86.86,0,0,1,.86-.86h0a.81.81,0,0,1,.55.2l9.19,8.42V458h2V476h-2v-8.67l-9.16,8.48A.82.82,0,0,1,583.26,476Z" transform="translate(0 -10.99)"/><path class="cls-7" d="M583.26,458.44a.31.31,0,0,1,.21.07l8.3,7.63.87.81-.87.8-8.3,7.68a.32.32,0,0,1-.21.08.37.37,0,0,1-.37-.37V458.8a.36.36,0,0,1,.36-.36h0m11.26,0v17.12h-1.07V458.44h1.07m-11.26-1a1.36,1.36,0,0,0-1.37,1.35h0v16.34a1.36,1.36,0,0,0,1.35,1.37h0a1.34,1.34,0,0,0,.87-.32l8.32-7.7V476a.51.51,0,0,0,.51.51h2a.51.51,0,0,0,.52-.5h0V458a.51.51,0,0,0-.51-.51h-2a.51.51,0,0,0-.51.51h0v7.46l-8.32-7.66A1.33,1.33,0,0,0,583.26,457.44Z" transform="translate(0 -10.99)"/><path class="cls-7" d="M498.4,476.31a1.54,1.54,0,0,1-1.54-1.54V459.84a1.54,1.54,0,0,1,1.54-1.54h4.07a1.54,1.54,0,0,1,1.54,1.54v14.93a1.54,1.54,0,0,1-1.54,1.54Zm-10.86,0a1.54,1.54,0,0,1-1.54-1.54V459.84a1.54,1.54,0,0,1,1.54-1.54h4.07a1.54,1.54,0,0,1,1.54,1.54v14.93a1.54,1.54,0,0,1-1.54,1.54Z" transform="translate(0 -10.99)"/><path class="cls-7" d="M502.47,458.8a1,1,0,0,1,1,1v14.93a1,1,0,0,1-1,1H498.4a1,1,0,0,1-1-1V459.84a1,1,0,0,1,1-1h4.07m-10.86,0a1,1,0,0,1,1,1v14.93a1,1,0,0,1-1,1h-4.07a1,1,0,0,1-1-1V459.84a1,1,0,0,1,1-1h4.07m10.86-1H498.4a2,2,0,0,0-2,2v14.93a2,2,0,0,0,2,2h4.07a2,2,0,0,0,2-2V459.84A2,2,0,0,0,502.47,457.84Zm-10.86,0h-4.07a2,2,0,0,0-2,2v14.93a2,2,0,0,0,2,2h4.07a2,2,0,0,0,2-2V459.84A2,2,0,0,0,491.61,457.84Z" transform="translate(0 -10.99)"/><rect class="cls-8" x="375" y="422.63" width="240" height="2.67"/><path class="cls-7" d="M449.11,440.78a5.84,5.84,0,1,1,5.83-5.85v0A5.84,5.84,0,0,1,449.11,440.78Z" transform="translate(0 -10.99)"/><path class="cls-7" d="M449.11,429.61a5.34,5.34,0,1,1-5.33,5.35h0a5.34,5.34,0,0,1,5.33-5.34m0-1a6.34,6.34,0,1,0,6.33,6.35h0a6.33,6.33,0,0,0-6.32-6.34Z" transform="translate(0 -10.99)"/><rect class="cls-7" x="375.5" y="423.13" width="73.11" height="1.67"/><path class="cls-7" d="M448.11,434.61v.67H376v-.67h72.11m1-1H375v2.67h74.11Z" transform="translate(0 -10.99)"/><path class="cls-9" d="M864.78,588.36c-37.63,0-68.13,42.59-68.13,95.14s30.5,95.14,68.13,95.14S932.9,736,932.9,683.5,902.4,588.36,864.78,588.36Zm3.52,177.2c-33.08,0-59.9-37.3-59.9-83.3S835.22,599,868.3,599s59.91,37.29,59.91,83.29S901.39,765.56,868.3,765.56Z" transform="translate(0 -10.99)"/><path class="cls-6" d="M873,475.56l-4.7,79.88H776a32,32,0,0,0-21.71,8.21,28.93,28.93,0,0,0-9.31,18.8V702.29h11.74l-.08-8.22H873V682.32H756.51l-1-96.12a15.56,15.56,0,0,1,.37-3.6c.73-3.17,2.75-8.94,8.18-12.18a15.34,15.34,0,0,1,7.84-2H876.52L882.4,485h35.23v-9.46Z" transform="translate(0 -10.99)"/><path class="cls-10" d="M873,475.56l-4.7,79.88H776a32,32,0,0,0-21.71,8.21,28.93,28.93,0,0,0-9.31,18.8V702.29h11.74l-.08-8.22H873V682.32H756.51l-1-96.12a15.56,15.56,0,0,1,.37-3.6c.73-3.17,2.75-8.94,8.18-12.18a15.34,15.34,0,0,1,7.84-2H876.52L882.4,485h35.23v-9.46Z" transform="translate(0 -10.99)"/><rect class="cls-6" x="838.94" y="671.34" width="117.46" height="11.75"/><path class="cls-6" d="M876.52,673.42V638.86h-9.39v34.56c-3.48,2.6-5.88,8-5.88,14.19,0,8.76,4.74,15.86,10.58,15.86s10.57-7.1,10.57-15.86C882.4,681.39,880,676,876.52,673.42Z" transform="translate(0 -10.99)"/><path class="cls-6" d="M830.37,702.81a11.06,11.06,0,0,1,14.44-.52h0s14.09,9.4,1.17,49.34c0,0-9.39,5.87-4.69-12.93s2.34-30.54-2.35-30.54-10.57,12.93-10.57,12.93l-8.23-3.53S823.85,708.91,830.37,702.81Z" transform="translate(0 -10.99)"/><path class="cls-6" d="M742.28,702.81a11,11,0,0,1,14.43-.52h0s14.1,9.4,1.18,49.34c0,0-9.4,5.87-4.7-12.93s2.35-30.54-2.35-30.54-10.57,12.93-10.57,12.93L732,717.56S735.76,708.91,742.28,702.81Z" transform="translate(0 -10.99)"/><ellipse class="cls-9" cx="743.21" cy="737.12" rx="26.43" ry="35.24"/><ellipse class="cls-9" cx="831.3" cy="737.12" rx="26.43" ry="35.24"/><path class="cls-11" d="M795.28,682.43c.81,18.19,21.44,11.13,24.43,8.69a8,8,0,0,0,1.15-1.18c-7.21,2.65-20,4.7-24.15-11.65A32.49,32.49,0,0,0,795.28,682.43Z" transform="translate(0 -10.99)"/><path class="cls-11" d="M716,697.64s15.74,4.61,24.43,4.07c7.61-.48,6.47-7.82,6.07-9.64-8-.25-21.7-1-28.82-3.15h0C715.74,689.76,716,697.64,716,697.64Z" transform="translate(0 -10.99)"/><path class="cls-10" d="M795.28,682.43c.81,18.19,21.44,11.13,24.43,8.69a8,8,0,0,0,1.15-1.18c-7.21,2.65-20,4.7-24.15-11.65A32.49,32.49,0,0,0,795.28,682.43Z" transform="translate(0 -10.99)"/><path class="cls-10" d="M811.56,675.92c-2.71,2.71,25.79-9,19.28-9.5S811.56,675.92,811.56,675.92Z" transform="translate(0 -10.99)"/><circle class="cls-7" cx="900.54" cy="491.64" r="2.97"/><path class="cls-12" d="M841.12,551a7.23,7.23,0,0,0,5.06,3.52A38.29,38.29,0,0,0,862,553.11s-27.35-8.69-1-29.81h-7.06l-2.35-.89C847.7,529.25,841.61,541.44,841.12,551Z" transform="translate(0 -10.99)"/><path class="cls-10" d="M677.19,754.37c8.41,5.7,21.17,3,21.17,3s19.28-9.23,25-9.23,19.54-5.7,19.54-5.7l-.46-3.85c-5.63,1.09-18.42,3.67-19.9,4.93-1.9,1.63-25.24,9.51-25.24,9.51s-15.9-2-20.33-8.52C674,747.56,672.78,751.39,677.19,754.37Z" transform="translate(0 -10.99)"/><path class="cls-6" d="M954.05,561.34v70.48H841.29v11.74H952.87v50.51h11.75V561.34Z" transform="translate(0 -10.99)"/><ellipse class="cls-9" cx="959.92" cy="675.45" rx="10.57" ry="15.86"/><ellipse class="cls-6" cx="962.27" cy="676.04" rx="2.35" ry="4.7"/><path class="cls-6" d="M835.41,663.56v12.92c-3.69-2.3-7.74-1.71-11.31-.14a21.36,21.36,0,0,0-11.73,13.77c-2.85,9.82-8.37,29.2-13.37,47.45-7,25.84-20,20-20,20L689.14,764,651,744.56V732.83h96.32S769.63,741,779,744.56s5.87-3.53,18.28-47.84S835.41,663.56,835.41,663.56Z" transform="translate(0 -10.99)"/><polygon class="cls-10" points="779.03 746.51 689.17 752.97 651 733.59 744.97 732.42 779.03 746.51"/><path class="cls-9" d="M952.87,588.36c-37.62,0-68.12,42.59-68.12,95.14s30.5,95.14,68.12,95.14S1021,736,1021,683.5,990.5,588.36,952.87,588.36Zm3.53,177.2c-33.09,0-59.91-37.3-59.91-83.3S923.31,599,956.4,599s59.9,37.29,59.9,83.29S989.48,765.56,956.4,765.56Z" transform="translate(0 -10.99)"/><rect class="cls-13" x="112.17" y="327.79" width="118.04" height="335.69" transform="translate(-61.83 14.9) rotate(-7.33)"/><polygon class="cls-14" points="739.9 583.14 887.15 413.3 954.14 627.87 739.9 583.14"/><rect class="cls-15" x="783.54" y="577.82" width="23.49" height="85.62" rx="11.74" ry="11.74" transform="translate(655.44 1608.69) rotate(-120)"/><rect class="cls-15" x="834.66" y="591.04" width="23.49" height="85.62" rx="11.74" ry="11.74" transform="translate(720.67 1672.79) rotate(-120)"/><rect class="cls-15" x="774.06" y="415.49" width="23.49" height="85.62" rx="11.74" ry="11.74" transform="translate(-121.87 386.93) rotate(-26.45)"/><rect class="cls-16" x="265.2" y="414.63" width="23.49" height="85.62" rx="11.74" ry="11.74" transform="translate(149.32 965.74) rotate(-135)"/><circle class="cls-17" cx="851.48" cy="505.17" r="9.25"/><circle class="cls-17" cx="879.15" cy="511.42" r="9.25"/><circle class="cls-17" cx="152.23" cy="463.08" r="9.25" transform="translate(-151.27 70.64) rotate(-20.31)"/><circle class="cls-17" cx="178.81" cy="459.33" r="9.25" transform="translate(-148.32 79.64) rotate(-20.31)"/><path class="cls-6" d="M1005.73,475.56H961.1l-4.7,79.88H864.08a32,32,0,0,0-21.7,8.21,28.93,28.93,0,0,0-9.32,18.8V702.29h11.75L843.65,586.2a15.56,15.56,0,0,1,.35-3.64c.72-3.17,2.75-8.94,8.18-12.18a15.28,15.28,0,0,1,7.83-2H964.6l5.87-83.4h35.24Z" transform="translate(0 -10.99)"/><rect class="cls-15" x="958.75" y="462.79" width="23.49" height="85.62" rx="11.74" ry="11.74" transform="translate(1123.03 1578.22) rotate(-125.53)"/><rect class="cls-16" x="68.24" y="503.54" width="23.49" height="85.62" rx="11.74" ry="11.74" transform="translate(-123.92 1048.5) rotate(-150)"/><rect class="cls-16" x="162.7" y="640.69" width="23.49" height="85.62" rx="11.74" ry="11.74" transform="matrix(-1, 0.04, -0.04, -1, 373.22, 1349.33)"/><rect class="cls-16" x="200.26" y="636.52" width="23.49" height="85.62" rx="11.74" ry="11.74" transform="translate(448.17 1339.64) rotate(177.95)"/><polygon class="cls-18" points="385 376.31 459.38 247.47 533.77 376.31 385 376.31"/><rect class="cls-18" x="551.19" y="247.5" width="33.81" height="128.78"/><path class="cls-19" d="M801,579" transform="translate(0 -10.99)"/><path class="cls-19" d="M789.1,563.35" transform="translate(0 -10.99)"/><path class="cls-20" d="M868.49,543.19c-4,3.89-13.49,6.24-17.52-3.56" transform="translate(0 -10.99)"/><path class="cls-20" d="M180.43,492.47c-2.6,5-10.82,10.19-17.75,2.17" transform="translate(0 -10.99)"/></svg>